<svg width="1920" height="425" viewBox="0 0 1920 425" fill="none" xmlns="http://www.w3.org/2000/svg">
<g clip-path="url(#clip0_3:54)">
<path d="M0 85L64 127.5C128 170 256 255 384 262.039C512 269.609 640 197.891 768 205.461C896 212.5 1024 297.5 1152 311.711C1280 325.391 1408 269.609 1536 247.961C1664 227.109 1792 240.391 1856 247.961L1920 255V425H1856C1792 425 1664 425 1536 425C1408 425 1280 425 1152 425C1024 425 896 425 768 425C640 425 512 425 384 425C256 425 128 425 64 425H0V85Z" fill="#F03737"/>
</g>
<defs>
<clipPath id="clip0_3:54">
<rect width="1920" height="425" fill="white"/>
</clipPath>
</defs>
</svg>
