<svg width="30" height="35" viewBox="0 0 30 35" fill="none" xmlns="http://www.w3.org/2000/svg">
<path d="M12.5 26.25C14.7187 26.2495 16.8735 25.3829 18.6213 23.7884L24.1163 30.1992L25.8838 28.1371L20.3888 21.7263C21.7563 19.687 22.4995 17.1725 22.5 14.5834C22.5 8.15065 18.0138 2.91669 12.5 2.91669C6.98627 2.91669 2.50002 8.15065 2.50002 14.5834C2.50002 21.0161 6.98627 26.25 12.5 26.25ZM12.5 5.83335C16.6363 5.83335 20 9.75773 20 14.5834C20 19.409 16.6363 23.3334 12.5 23.3334C8.36377 23.3334 5.00002 19.409 5.00002 14.5834C5.00002 9.75773 8.36377 5.83335 12.5 5.83335Z" fill="black"/>
<path d="M14.265 12.5213C14.7387 13.0754 15 13.8075 15 14.5833H17.5C17.5011 13.8169 17.372 13.0578 17.1201 12.3499C16.8682 11.642 16.4986 10.9994 16.0325 10.4592C14.14 8.25417 10.8587 8.25417 8.9675 10.4592L10.7325 12.5242C11.6825 11.4188 13.32 11.4217 14.265 12.5213Z" fill="black"/>
</svg>
